<svg width="86" height="86" viewBox="0 0 86 86" fill="none" xmlns="http://www.w3.org/2000/svg">
<path d="M41.0447 2.08864C41.4978 -0.0171729 44.5022 -0.0171749 44.9553 2.08864L49.4708 23.0783C49.765 24.4458 51.3362 25.0966 52.5112 24.3376L70.5461 12.6887C72.3555 11.52 74.48 13.6445 73.3113 15.4539L61.6624 33.4888C60.9034 34.6638 61.5542 36.235 62.9217 36.5292L83.9114 41.0447C86.0172 41.4978 86.0172 44.5022 83.9114 44.9553L62.9217 49.4708C61.5542 49.765 60.9034 51.3362 61.6624 52.5112L73.3113 70.5461C74.48 72.3555 72.3555 74.48 70.5461 73.3113L52.5112 61.6624C51.3362 60.9034 49.765 61.5542 49.4708 62.9217L44.9553 83.9114C44.5022 86.0172 41.4978 86.0172 41.0447 83.9114L36.5292 62.9217C36.235 61.5542 34.6638 60.9034 33.4888 61.6624L15.4539 73.3113C13.6445 74.48 11.52 72.3555 12.6887 70.5461L24.3376 52.5112C25.0966 51.3362 24.4458 49.765 23.0783 49.4708L2.08864 44.9553C-0.0171729 44.5022 -0.0171749 41.4978 2.08864 41.0447L23.0783 36.5292C24.4458 36.235 25.0966 34.6638 24.3376 33.4888L12.6887 15.4539C11.52 13.6445 13.6445 11.52 15.4539 12.6887L33.4888 24.3376C34.6638 25.0966 36.235 24.4458 36.5292 23.0783L41.0447 2.08864Z" fill="url(#paint0_linear_275_1805)"/>
<defs>
<linearGradient id="paint0_linear_275_1805" x1="35.6147" y1="24.246" x2="50.9101" y2="61.9304" gradientUnits="userSpaceOnUse">
<stop stop-color="#0d6efd"/>
<stop offset="1" stop-color="#dc3545"/>
</linearGradient>
</defs>
</svg>